# xmcd
#
# Track frame offsets:
# 150
# 11477
# 22392
# 34199
# 46466
# 60193
# 70534
# 82981
# 94268
# 108812
# 118630
# 130055
# 139573
# 150110
# 159554
# 168651
# 178749
# 188116
# 199031
# 211343
# 219831
# 240043
# 250490
# 270449
# 282119
# 295027
# 305159
#
# Disc length: 4207 seconds
#
# Revision: 2
# Processed by: cddbd v1.5.1PL0 Copyright (c) Steve Scherf et al.
# Submitted via: Axialis_AX_CDPlayer 2.6
#
DISCID=6a106d1b
DTITLE=Burl Ives - The nashville years disc 2
DYEAR=1900
DGENRE=
TTITLE0=brooklyn bridge 1962
TTITLE1=poor little jimmie 1962
TTITLE2=thumbin' johnny brown 1962
TTITLE3=funny way of laughin' 1962
TTITLE4=that's all i can remember 1962
TTITLE5=ninety nine 1962
TTITLE6=call me mr. in-between 1962
TTITLE7=i ain't comin' home tonight 1962
TTITLE8=how do you fall out of love 1963
TTITLE9=in foggy old london 1962
TTITLE10=
TTITLE11=
TTITLE12=
TTITLE13=
TTITLE14=
TTITLE15=
TTITLE16=
TTITLE17=
TTITLE18=
TTITLE19=
TTITLE20=
TTITLE21=
TTITLE22=
TTITLE23=
TTITLE24=
TTITLE25=
TTITLE26=
EXTD=
EXTT0=
EXTT1=
EXTT2=
EXTT3=
EXTT4=
EXTT5=
EXTT6=
EXTT7=
EXTT8=
EXTT9=
EXTT10=
EXTT11=
EXTT12=
EXTT13=
EXTT14=
EXTT15=
EXTT16=
EXTT17=
EXTT18=
EXTT19=
EXTT20=
EXTT21=
EXTT22=
EXTT23=
EXTT24=
EXTT25=
EXTT26=
PLAYORDER=
